<<<<<<< ours
<svg xmlns="http://www.w3.org/2000/svg" width="1600" height="1020" viewBox="0 0 1600 1020">
  <defs>
    <style>
      .title { font: 700 28px Arial, sans-serif; fill: #111827; }
=======
<svg xmlns="http://www.w3.org/2000/svg" width="1700" height="1080" viewBox="0 0 1700 1080">
  <defs>
    <style>
      .title { font: 700 30px Arial, sans-serif; fill: #111827; }
>>>>>>> theirs
      .subtitle { font: 400 15px Arial, sans-serif; fill: #374151; }
      .section { font: 700 18px Arial, sans-serif; fill: #111827; }
      .label { font: 600 14px Arial, sans-serif; fill: #111827; }
      .small { font: 12px Arial, sans-serif; fill: #374151; }
      .tiny { font: 11px Arial, sans-serif; fill: #4b5563; }
<<<<<<< ours
      .pin { font: 12px 'Consolas', monospace; fill: #111827; }
=======
      .pin { font: 12px Consolas, monospace; fill: #111827; }
>>>>>>> theirs
      .note { font: 13px Arial, sans-serif; fill: #7c2d12; }
      .box { fill: #ffffff; stroke: #1f2937; stroke-width: 2; rx: 16; ry: 16; }
      .arduino { fill: #e0f2fe; stroke: #0284c7; stroke-width: 3; rx: 20; ry: 20; }
      .power { fill: #ecfccb; stroke: #65a30d; stroke-width: 2; rx: 16; ry: 16; }
      .camera { fill: #ede9fe; stroke: #7c3aed; stroke-width: 2; rx: 16; ry: 16; }
      .sensor { fill: #fef3c7; stroke: #d97706; stroke-width: 2; rx: 16; ry: 16; }
      .servo { fill: #fee2e2; stroke: #dc2626; stroke-width: 2; rx: 16; ry: 16; }
      .rfid { fill: #dcfce7; stroke: #16a34a; stroke-width: 2; rx: 16; ry: 16; }
      .breadboard { fill: #fff7ed; stroke: #ea580c; stroke-width: 2; rx: 16; ry: 16; }
<<<<<<< ours
=======
      .led { fill: #f3f4f6; stroke: #6b7280; stroke-width: 2; rx: 16; ry: 16; }
      .railPlus { stroke: #dc2626; stroke-width: 8; stroke-linecap: round; }
      .railMinus { stroke: #111827; stroke-width: 8; stroke-linecap: round; }
>>>>>>> theirs
      .wire5v { stroke: #dc2626; stroke-width: 4; fill: none; }
      .wiregnd { stroke: #111827; stroke-width: 4; fill: none; }
      .wiresig { stroke: #2563eb; stroke-width: 4; fill: none; }
      .wirespi { stroke: #16a34a; stroke-width: 4; fill: none; }
      .wirewifi { stroke: #7c3aed; stroke-width: 4; fill: none; stroke-dasharray: 8 8; }
      .wireaux { stroke: #d97706; stroke-width: 4; fill: none; }
<<<<<<< ours
=======
      .wireled { stroke: #6b7280; stroke-width: 4; fill: none; }
>>>>>>> theirs
    </style>
    <marker id="arrowRed" markerWidth="10" markerHeight="10" refX="8" refY="3" orient="auto" markerUnits="strokeWidth">
      <path d="M0,0 L0,6 L9,3 z" fill="#dc2626"/>
    </marker>
    <marker id="arrowBlack" markerWidth="10" markerHeight="10" refX="8" refY="3" orient="auto" markerUnits="strokeWidth">
      <path d="M0,0 L0,6 L9,3 z" fill="#111827"/>
    </marker>
    <marker id="arrowBlue" markerWidth="10" markerHeight="10" refX="8" refY="3" orient="auto" markerUnits="strokeWidth">
      <path d="M0,0 L0,6 L9,3 z" fill="#2563eb"/>
    </marker>
    <marker id="arrowGreen" markerWidth="10" markerHeight="10" refX="8" refY="3" orient="auto" markerUnits="strokeWidth">
      <path d="M0,0 L0,6 L9,3 z" fill="#16a34a"/>
    </marker>
    <marker id="arrowPurple" markerWidth="10" markerHeight="10" refX="8" refY="3" orient="auto" markerUnits="strokeWidth">
      <path d="M0,0 L0,6 L9,3 z" fill="#7c3aed"/>
    </marker>
    <marker id="arrowOrange" markerWidth="10" markerHeight="10" refX="8" refY="3" orient="auto" markerUnits="strokeWidth">
      <path d="M0,0 L0,6 L9,3 z" fill="#d97706"/>
    </marker>
<<<<<<< ours
  </defs>

  <rect x="0" y="0" width="1600" height="1020" fill="#f8fafc"/>

  <text x="40" y="48" class="title">Arduino Uno wiring diagram</text>
  <text x="40" y="76" class="subtitle">2 servo motors, 2 ESP32-CAM-MB, 2 ultrasonic sensors, 1 breadboard, and 1 RFID RC522</text>

  <rect x="35" y="90" width="1530" height="78" class="power"/>
  <text x="55" y="122" class="section">Power notes</text>
  <text x="55" y="148" class="note">Use an external 5V supply for both servos. Do not power two servos from the Arduino 5V pin. All grounds must be connected together.</text>

  <rect x="520" y="220" width="500" height="560" class="arduino"/>
  <text x="690" y="255" class="title" style="font-size:26px;">Arduino Uno</text>
  <text x="560" y="290" class="section">Digital pins used</text>
  <text x="560" y="325" class="pin">D3  = Ultrasonic 1 TRIG</text>
  <text x="560" y="350" class="pin">D4  = Ultrasonic 1 ECHO</text>
  <text x="560" y="375" class="pin">D5  = Servo 1 signal</text>
  <text x="560" y="400" class="pin">D6  = Servo 2 signal</text>
  <text x="560" y="425" class="pin">D7  = Ultrasonic 2 TRIG</text>
  <text x="560" y="450" class="pin">D8  = Ultrasonic 2 ECHO</text>
  <text x="560" y="475" class="pin">D9  = RC522 RST</text>
  <text x="560" y="500" class="pin">D10 = RC522 SDA / SS</text>
  <text x="560" y="525" class="pin">D11 = RC522 MOSI</text>
  <text x="560" y="550" class="pin">D12 = RC522 MISO</text>
  <text x="560" y="575" class="pin">D13 = RC522 SCK</text>
  <text x="560" y="625" class="section">Power pins used</text>
  <text x="560" y="655" class="pin">5V   = Ultrasonic sensors VCC</text>
  <text x="560" y="680" class="pin">3.3V = RC522 VCC only</text>
  <text x="560" y="705" class="pin">GND  = Common ground</text>
  <text x="560" y="745" class="small">ESP32-CAM-MB boards are separate Wi-Fi devices in this setup.</text>

  <rect x="60" y="230" width="250" height="180" class="rfid"/>
  <text x="120" y="262" class="section">RFID RC522</text>
  <text x="82" y="295" class="pin">SDA/SS → D10</text>
  <text x="82" y="320" class="pin">SCK    → D13</text>
  <text x="82" y="345" class="pin">MOSI   → D11</text>
  <text x="82" y="370" class="pin">MISO   → D12</text>
  <text x="82" y="395" class="pin">RST    → D9</text>
  <text x="82" y="420" class="pin">VCC    → 3.3V</text>
  <text x="82" y="445" class="pin">GND    → GND</text>

  <rect x="70" y="520" width="230" height="130" class="sensor"/>
  <text x="102" y="552" class="section">Ultrasonic 1</text>
  <text x="92" y="585" class="pin">TRIG → D3</text>
  <text x="92" y="610" class="pin">ECHO → D4</text>
  <text x="92" y="635" class="pin">VCC → 5V, GND → GND</text>

  <rect x="70" y="690" width="230" height="130" class="sensor"/>
  <text x="102" y="722" class="section">Ultrasonic 2</text>
  <text x="92" y="755" class="pin">TRIG → D7</text>
  <text x="92" y="780" class="pin">ECHO → D8</text>
  <text x="92" y="805" class="pin">VCC → 5V, GND → GND</text>

  <rect x="1120" y="260" width="250" height="150" class="servo"/>
  <text x="1190" y="292" class="section">Servo 1</text>
  <text x="1142" y="325" class="pin">Signal → D5</text>
  <text x="1142" y="350" class="pin">VCC → external 5V</text>
  <text x="1142" y="375" class="pin">GND → common GND</text>

  <rect x="1120" y="455" width="250" height="150" class="servo"/>
  <text x="1190" y="487" class="section">Servo 2</text>
  <text x="1142" y="520" class="pin">Signal → D6</text>
  <text x="1142" y="545" class="pin">VCC → external 5V</text>
  <text x="1142" y="570" class="pin">GND → common GND</text>

  <rect x="1120" y="655" width="250" height="150" class="breadboard"/>
  <text x="1186" y="687" class="section">Breadboard</text>
  <text x="1146" y="720" class="pin">+ rail = external 5V</text>
  <text x="1146" y="745" class="pin">- rail = common GND</text>
  <text x="1146" y="770" class="tiny">Use this to distribute servo power</text>

  <rect x="1270" y="130" width="250" height="95" class="camera"/>
  <text x="1320" y="163" class="section">ESP32-CAM-MB 1</text>
  <text x="1292" y="190" class="small">USB power/programming</text>
  <text x="1292" y="210" class="small">Wi-Fi only, no Uno signal wire</text>

  <rect x="1270" y="840" width="250" height="95" class="camera"/>
  <text x="1320" y="873" class="section">ESP32-CAM-MB 2</text>
  <text x="1292" y="900" class="small">USB power/programming</text>
  <text x="1292" y="920" class="small">Wi-Fi only, no Uno signal wire</text>

  <rect x="1260" y="480" width="265" height="110" class="power"/>
  <text x="1305" y="512" class="section">External 5V supply</text>
  <text x="1285" y="540" class="pin">+5V → breadboard + rail</text>
  <text x="1285" y="565" class="pin">GND → breadboard - rail</text>

  <path d="M310 295 C390 295, 420 500, 520 500" class="wirespi" marker-end="url(#arrowGreen)"/>
  <path d="M310 320 C410 320, 430 575, 520 575" class="wirespi" marker-end="url(#arrowGreen)"/>
  <path d="M310 345 C405 345, 425 525, 520 525" class="wirespi" marker-end="url(#arrowGreen)"/>
  <path d="M310 370 C405 370, 425 550, 520 550" class="wirespi" marker-end="url(#arrowGreen)"/>
  <path d="M310 395 C395 395, 420 475, 520 475" class="wirespi" marker-end="url(#arrowGreen)"/>
  <path d="M310 420 C390 420, 430 680, 520 680" class="wirespi" marker-end="url(#arrowGreen)"/>
  <path d="M310 445 C380 445, 420 705, 520 705" class="wiregnd" marker-end="url(#arrowBlack)"/>

  <path d="M300 585 C380 585, 420 325, 520 325" class="wireaux" marker-end="url(#arrowOrange)"/>
  <path d="M300 610 C380 610, 420 350, 520 350" class="wireaux" marker-end="url(#arrowOrange)"/>
  <path d="M300 635 C380 635, 420 655, 520 655" class="wire5v" marker-end="url(#arrowRed)"/>
  <path d="M300 645 C380 645, 420 705, 520 705" class="wiregnd" marker-end="url(#arrowBlack)"/>

  <path d="M300 755 C390 755, 430 425, 520 425" class="wireaux" marker-end="url(#arrowOrange)"/>
  <path d="M300 780 C390 780, 430 450, 520 450" class="wireaux" marker-end="url(#arrowOrange)"/>
  <path d="M300 805 C390 805, 430 655, 520 655" class="wire5v" marker-end="url(#arrowRed)"/>
  <path d="M300 815 C390 815, 430 705, 520 705" class="wiregnd" marker-end="url(#arrowBlack)"/>

  <path d="M1020 375 C1080 375, 1080 325, 1120 325" class="wiresig" marker-end="url(#arrowBlue)"/>
  <path d="M1020 400 C1080 400, 1080 520, 1120 520" class="wiresig" marker-end="url(#arrowBlue)"/>

  <path d="M1260 540 C1215 540, 1215 720, 1120 720" class="wire5v" marker-end="url(#arrowRed)"/>
  <path d="M1260 565 C1215 565, 1215 745, 1120 745" class="wiregnd" marker-end="url(#arrowBlack)"/>
  <path d="M1260 540 C1220 540, 1220 350, 1120 350" class="wire5v" marker-end="url(#arrowRed)"/>
  <path d="M1260 565 C1220 565, 1220 375, 1120 375" class="wiregnd" marker-end="url(#arrowBlack)"/>
  <path d="M1260 540 C1225 540, 1225 545, 1120 545" class="wire5v" marker-end="url(#arrowRed)"/>
  <path d="M1260 565 C1225 565, 1225 570, 1120 570" class="wiregnd" marker-end="url(#arrowBlack)"/>

  <path d="M1370 177 C1450 177, 1490 245, 1490 480" class="wirewifi" marker-end="url(#arrowPurple)"/>
  <path d="M1370 887 C1450 887, 1490 820, 1490 590" class="wirewifi" marker-end="url(#arrowPurple)"/>
  <text x="1430" y="460" class="small" transform="rotate(90 1430,460)">Wi-Fi / web stream only</text>

  <circle cx="1490" cy="535" r="34" fill="#ede9fe" stroke="#7c3aed" stroke-width="3"/>
  <text x="1468" y="541" class="label" style="fill:#6d28d9;">Wi-Fi</text>

  <text x="60" y="920" class="section">Legend</text>
  <line x1="60" y1="945" x2="130" y2="945" class="wire5v"/>
  <text x="142" y="949" class="small">5V power</text>
  <line x1="250" y1="945" x2="320" y2="945" class="wiregnd"/>
  <text x="332" y="949" class="small">GND</text>
  <line x1="420" y1="945" x2="490" y2="945" class="wiresig"/>
  <text x="502" y="949" class="small">Servo signal</text>
  <line x1="640" y1="945" x2="710" y2="945" class="wireaux"/>
  <text x="722" y="949" class="small">Ultrasonic signal</text>
  <line x1="880" y1="945" x2="950" y2="945" class="wirespi"/>
  <text x="962" y="949" class="small">RFID SPI lines</text>
  <line x1="1090" y1="945" x2="1160" y2="945" class="wirewifi"/>
  <text x="1172" y="949" class="small">Wi-Fi only</text>

  <text x="60" y="985" class="tiny">Recommended servo supply: regulated 5V, 2A or higher depending on servo load.</text>
  <text x="760" y="985" class="tiny">RC522 must use 3.3V only. ESP32-CAM-MB modules should be powered by USB, not from the Arduino Uno.</text>
=======
    <marker id="arrowGray" markerWidth="10" markerHeight="10" refX="8" refY="3" orient="auto" markerUnits="strokeWidth">
      <path d="M0,0 L0,6 L9,3 z" fill="#6b7280"/>
    </marker>
  </defs>

  <rect x="0" y="0" width="1700" height="1080" fill="#f8fafc"/>

  <text x="40" y="48" class="title">Arduino Uno gate security wiring diagram</text>
  <text x="40" y="76" class="subtitle">Arduino Uno, RFID RC522, 2 ultrasonic sensors, 2 servos, 2 bare ESP32-CAM modules, LEDs, external 5V supply, and breadboard rails</text>

  <rect x="35" y="92" width="1630" height="86" class="power"/>
  <text x="55" y="124" class="section">Power notes</text>
  <text x="55" y="150" class="note">Use an external regulated 5V supply for the servos and ESP32-CAM modules. Do not power the servos or cameras from the Arduino 5V pin.</text>
  <text x="55" y="170" class="note">Connect Arduino GND, breadboard - rail, servo GND, sensor GND, RFID GND, and ESP32-CAM GND together.</text>

  <rect x="535" y="220" width="520" height="610" class="arduino"/>
  <text x="700" y="255" class="title" style="font-size:26px;">Arduino Uno</text>
  <text x="575" y="292" class="section">Digital pins used</text>
  <text x="575" y="327" class="pin">D3  = Entrance ultrasonic TRIG</text>
  <text x="575" y="352" class="pin">D4  = Entrance ultrasonic ECHO</text>
  <text x="575" y="377" class="pin">D5  = Entrance servo signal</text>
  <text x="575" y="402" class="pin">D6  = Exit ultrasonic TRIG</text>
  <text x="575" y="427" class="pin">D7  = Exit ultrasonic ECHO</text>
  <text x="575" y="452" class="pin">D8  = Exit servo signal</text>
  <text x="575" y="477" class="pin">D9  = RC522 RST</text>
  <text x="575" y="502" class="pin">D10 = RC522 SDA / SS</text>
  <text x="575" y="527" class="pin">D11 = RC522 MOSI</text>
  <text x="575" y="552" class="pin">D12 = RC522 MISO</text>
  <text x="575" y="577" class="pin">D13 = RC522 SCK</text>
  <text x="575" y="622" class="section">Other pins used</text>
  <text x="575" y="652" class="pin">A0  = Green LED</text>
  <text x="575" y="677" class="pin">A1  = Red LED</text>
  <text x="575" y="722" class="section">Power pins used</text>
  <text x="575" y="752" class="pin">5V   = Ultrasonic sensors VCC</text>
  <text x="575" y="777" class="pin">3.3V = RC522 VCC only</text>
  <text x="575" y="802" class="pin">GND  = Common ground</text>

  <rect x="60" y="230" width="260" height="230" class="rfid"/>
  <text x="125" y="262" class="section">RFID RC522</text>
  <text x="82" y="295" class="pin">SDA/SS -> D10</text>
  <text x="82" y="320" class="pin">SCK    -> D13</text>
  <text x="82" y="345" class="pin">MOSI   -> D11</text>
  <text x="82" y="370" class="pin">MISO   -> D12</text>
  <text x="82" y="395" class="pin">RST    -> D9</text>
  <text x="82" y="420" class="pin">VCC    -> Arduino 3.3V</text>
  <text x="82" y="445" class="pin">GND    -> Common GND</text>

  <rect x="70" y="520" width="245" height="130" class="sensor"/>
  <text x="104" y="552" class="section">Entrance ultrasonic</text>
  <text x="92" y="585" class="pin">TRIG -> D3</text>
  <text x="92" y="610" class="pin">ECHO -> D4</text>
  <text x="92" y="635" class="pin">VCC -> 5V, GND -> GND</text>

  <rect x="70" y="700" width="245" height="130" class="sensor"/>
  <text x="120" y="732" class="section">Exit ultrasonic</text>
  <text x="92" y="765" class="pin">TRIG -> D6</text>
  <text x="92" y="790" class="pin">ECHO -> D7</text>
  <text x="92" y="815" class="pin">VCC -> 5V, GND -> GND</text>

  <rect x="108" y="875" width="185" height="100" class="led"/>
  <text x="158" y="907" class="section">LEDs</text>
  <text x="130" y="935" class="pin">Green -> A0</text>
  <text x="130" y="960" class="pin">Red   -> A1</text>

  <rect x="1130" y="245" width="250" height="150" class="servo"/>
  <text x="1190" y="277" class="section">Entrance servo</text>
  <text x="1152" y="310" class="pin">Signal -> D5</text>
  <text x="1152" y="335" class="pin">VCC -> breadboard +5V</text>
  <text x="1152" y="360" class="pin">GND -> breadboard -</text>

  <rect x="1130" y="430" width="250" height="150" class="servo"/>
  <text x="1208" y="462" class="section">Exit servo</text>
  <text x="1152" y="495" class="pin">Signal -> D8</text>
  <text x="1152" y="520" class="pin">VCC -> breadboard +5V</text>
  <text x="1152" y="545" class="pin">GND -> breadboard -</text>

  <rect x="1120" y="640" width="320" height="190" class="breadboard"/>
  <text x="1224" y="672" class="section">Breadboard</text>
  <line x1="1150" y1="710" x2="1410" y2="710" class="railPlus"/>
  <line x1="1150" y1="760" x2="1410" y2="760" class="railMinus"/>
  <text x="1160" y="700" class="pin">+ rail: external 5V</text>
  <text x="1160" y="750" class="pin">- rail: common GND</text>
  <text x="1150" y="802" class="tiny">Distributes servo and ESP32-CAM power</text>

  <rect x="1455" y="410" width="210" height="115" class="power"/>
  <text x="1496" y="442" class="section">External 5V</text>
  <text x="1480" y="470" class="pin">+5V -> breadboard +</text>
  <text x="1480" y="495" class="pin">GND -> breadboard -</text>

  <rect x="1320" y="205" width="270" height="145" class="camera"/>
  <text x="1372" y="237" class="section">ESP32-CAM Entrance</text>
  <text x="1345" y="267" class="pin">5V  -> breadboard + rail</text>
  <text x="1345" y="292" class="pin">GND -> breadboard - rail</text>
  <text x="1345" y="317" class="small">Bare ESP32-CAM module only</text>
  <text x="1345" y="337" class="small">Wi-Fi stream, no Arduino signal wire</text>

  <rect x="1320" y="870" width="270" height="145" class="camera"/>
  <text x="1390" y="902" class="section">ESP32-CAM Exit</text>
  <text x="1345" y="932" class="pin">5V  -> breadboard + rail</text>
  <text x="1345" y="957" class="pin">GND -> breadboard - rail</text>
  <text x="1345" y="982" class="small">Bare ESP32-CAM module only</text>
  <text x="1345" y="1002" class="small">Wi-Fi stream, no Arduino signal wire</text>

  <path d="M320 295 C420 295, 445 502, 535 502" class="wirespi" marker-end="url(#arrowGreen)"/>
  <path d="M320 320 C420 320, 450 577, 535 577" class="wirespi" marker-end="url(#arrowGreen)"/>
  <path d="M320 345 C420 345, 450 527, 535 527" class="wirespi" marker-end="url(#arrowGreen)"/>
  <path d="M320 370 C420 370, 450 552, 535 552" class="wirespi" marker-end="url(#arrowGreen)"/>
  <path d="M320 395 C415 395, 450 477, 535 477" class="wirespi" marker-end="url(#arrowGreen)"/>
  <path d="M320 420 C415 420, 455 777, 535 777" class="wirespi" marker-end="url(#arrowGreen)"/>
  <path d="M320 445 C415 445, 455 802, 535 802" class="wiregnd" marker-end="url(#arrowBlack)"/>

  <path d="M315 585 C400 585, 450 327, 535 327" class="wireaux" marker-end="url(#arrowOrange)"/>
  <path d="M315 610 C400 610, 450 352, 535 352" class="wireaux" marker-end="url(#arrowOrange)"/>
  <path d="M315 635 C405 635, 450 752, 535 752" class="wire5v" marker-end="url(#arrowRed)"/>
  <path d="M315 645 C405 645, 450 802, 535 802" class="wiregnd" marker-end="url(#arrowBlack)"/>

  <path d="M315 765 C405 765, 450 402, 535 402" class="wireaux" marker-end="url(#arrowOrange)"/>
  <path d="M315 790 C405 790, 450 427, 535 427" class="wireaux" marker-end="url(#arrowOrange)"/>
  <path d="M315 815 C405 815, 455 752, 535 752" class="wire5v" marker-end="url(#arrowRed)"/>
  <path d="M315 825 C405 825, 455 802, 535 802" class="wiregnd" marker-end="url(#arrowBlack)"/>

  <path d="M293 935 C390 935, 470 652, 535 652" class="wireled" marker-end="url(#arrowGray)"/>
  <path d="M293 960 C390 960, 470 677, 535 677" class="wireled" marker-end="url(#arrowGray)"/>

  <path d="M1055 377 C1095 377, 1095 310, 1130 310" class="wiresig" marker-end="url(#arrowBlue)"/>
  <path d="M1055 452 C1095 452, 1095 495, 1130 495" class="wiresig" marker-end="url(#arrowBlue)"/>

  <path d="M1455 470 C1425 470, 1425 710, 1410 710" class="wire5v" marker-end="url(#arrowRed)"/>
  <path d="M1455 495 C1425 495, 1425 760, 1410 760" class="wiregnd" marker-end="url(#arrowBlack)"/>

  <path d="M1150 710 C1100 710, 1100 335, 1130 335" class="wire5v" marker-end="url(#arrowRed)"/>
  <path d="M1150 760 C1095 760, 1095 360, 1130 360" class="wiregnd" marker-end="url(#arrowBlack)"/>
  <path d="M1150 710 C1100 710, 1100 520, 1130 520" class="wire5v" marker-end="url(#arrowRed)"/>
  <path d="M1150 760 C1095 760, 1095 545, 1130 545" class="wiregnd" marker-end="url(#arrowBlack)"/>

  <path d="M1410 710 C1450 710, 1450 267, 1320 267" class="wire5v" marker-end="url(#arrowRed)"/>
  <path d="M1410 760 C1465 760, 1465 292, 1320 292" class="wiregnd" marker-end="url(#arrowBlack)"/>
  <path d="M1410 710 C1450 710, 1450 932, 1320 932" class="wire5v" marker-end="url(#arrowRed)"/>
  <path d="M1410 760 C1465 760, 1465 957, 1320 957" class="wiregnd" marker-end="url(#arrowBlack)"/>

  <path d="M1590 278 C1640 278, 1640 500, 1605 540" class="wirewifi" marker-end="url(#arrowPurple)"/>
  <path d="M1590 942 C1640 942, 1640 610, 1605 570" class="wirewifi" marker-end="url(#arrowPurple)"/>
  <circle cx="1585" cy="555" r="36" fill="#ede9fe" stroke="#7c3aed" stroke-width="3"/>
  <text x="1563" y="561" class="label" style="fill:#6d28d9;">Wi-Fi</text>
  <text x="1530" y="620" class="small">Camera streams go to dashboard over Wi-Fi</text>

  <text x="60" y="1020" class="section">Legend</text>
  <line x1="170" y1="1016" x2="240" y2="1016" class="wire5v"/>
  <text x="252" y="1020" class="small">5V power</text>
  <line x1="365" y1="1016" x2="435" y2="1016" class="wiregnd"/>
  <text x="447" y="1020" class="small">GND</text>
  <line x1="530" y1="1016" x2="600" y2="1016" class="wiresig"/>
  <text x="612" y="1020" class="small">Servo signal</text>
  <line x1="735" y1="1016" x2="805" y2="1016" class="wireaux"/>
  <text x="817" y="1020" class="small">Ultrasonic signal</text>
  <line x1="980" y1="1016" x2="1050" y2="1016" class="wirespi"/>
  <text x="1062" y="1020" class="small">RFID SPI lines</text>
  <line x1="1200" y1="1016" x2="1270" y2="1016" class="wirewifi"/>
  <text x="1282" y="1020" class="small">Wi-Fi only</text>

  <text x="60" y="1055" class="tiny">ESP32-CAM programming hardware is not shown. For upload, use an ESP32-CAM-MB or FTDI adapter separately, then install the bare ESP32-CAM module in this wiring.</text>
>>>>>>> theirs
</svg>
